<?xml version="1.0" encoding="UTF-8" standalone="no"?>
<!-- Created with Inkscape (http://www.inkscape.org/) -->

<svg
   version="1.1"
   id="svg1"
   width="1141.1953"
   height="733.82697"
   viewBox="0 0 1141.1953 733.82697"
   sodipodi:docname="upload_e7zaoohe5qvwfn45wjzehvs6hx.pdf"
   xmlns:inkscape="http://www.inkscape.org/namespaces/inkscape"
   xmlns:sodipodi="http://sodipodi.sourceforge.net/DTD/sodipodi-0.dtd"
   xmlns="http://www.w3.org/2000/svg"
   xmlns:svg="http://www.w3.org/2000/svg">
  <defs
     id="defs1">
    <clipPath
       clipPathUnits="userSpaceOnUse"
       id="clipPath4">
      <path
         d="M 56.6375,164.83699 H 720.39584 V 518.67098 H 56.6375 Z"
         id="path4" />
    </clipPath>
    <clipPath
       clipPathUnits="userSpaceOnUse"
       id="clipPath6">
      <path
         d="M 56.6375,164.83699 H 720.39584 V 518.67098 H 56.6375 Z"
         id="path6" />
    </clipPath>
    <clipPath
       clipPathUnits="userSpaceOnUse"
       id="clipPath8">
      <path
         d="M 56.6375,164.83699 H 720.39584 V 518.67098 H 56.6375 Z"
         id="path8" />
    </clipPath>
    <clipPath
       clipPathUnits="userSpaceOnUse"
       id="clipPath10">
      <path
         d="M 56.6375,164.83699 H 720.39584 V 518.67098 H 56.6375 Z"
         id="path10" />
    </clipPath>
    <clipPath
       clipPathUnits="userSpaceOnUse"
       id="clipPath12">
      <path
         d="M 56.6375,164.83699 H 720.39584 V 518.67098 H 56.6375 Z"
         id="path12" />
    </clipPath>
    <clipPath
       clipPathUnits="userSpaceOnUse"
       id="clipPath14">
      <path
         d="M 56.6375,164.83699 H 720.39584 V 518.67098 H 56.6375 Z"
         id="path14" />
    </clipPath>
    <clipPath
       clipPathUnits="userSpaceOnUse"
       id="clipPath16">
      <path
         d="M 56.6375,164.83699 H 720.39584 V 518.67098 H 56.6375 Z"
         id="path16" />
    </clipPath>
    <clipPath
       clipPathUnits="userSpaceOnUse"
       id="clipPath18">
      <path
         d="M 56.6375,164.83699 H 720.39584 V 518.67098 H 56.6375 Z"
         id="path18" />
    </clipPath>
    <clipPath
       clipPathUnits="userSpaceOnUse"
       id="clipPath20">
      <path
         d="M 56.6375,164.83699 H 720.39584 V 518.67098 H 56.6375 Z"
         id="path20" />
    </clipPath>
    <clipPath
       clipPathUnits="userSpaceOnUse"
       id="clipPath22">
      <path
         d="M 56.6375,164.83699 H 720.39584 V 518.67098 H 56.6375 Z"
         id="path22" />
    </clipPath>
    <clipPath
       clipPathUnits="userSpaceOnUse"
       id="clipPath24">
      <path
         d="M 56.6375,164.83699 H 720.39584 V 518.67098 H 56.6375 Z"
         id="path24" />
    </clipPath>
    <clipPath
       clipPathUnits="userSpaceOnUse"
       id="clipPath26">
      <path
         d="M 56.6375,164.83699 H 720.39584 V 518.67098 H 56.6375 Z"
         id="path26" />
    </clipPath>
    <clipPath
       clipPathUnits="userSpaceOnUse"
       id="clipPath28">
      <path
         d="M 56.6375,164.83699 H 720.39584 V 518.67098 H 56.6375 Z"
         id="path28" />
    </clipPath>
    <clipPath
       clipPathUnits="userSpaceOnUse"
       id="clipPath30">
      <path
         d="M 56.6375,164.83699 H 720.39584 V 518.67098 H 56.6375 Z"
         id="path30" />
    </clipPath>
    <clipPath
       clipPathUnits="userSpaceOnUse"
       id="clipPath32">
      <path
         d="M 56.6375,164.83699 H 720.39584 V 518.67098 H 56.6375 Z"
         id="path32" />
    </clipPath>
    <clipPath
       clipPathUnits="userSpaceOnUse"
       id="clipPath34">
      <path
         d="M 56.6375,164.83699 H 720.39584 V 518.67098 H 56.6375 Z"
         id="path34" />
    </clipPath>
    <clipPath
       clipPathUnits="userSpaceOnUse"
       id="clipPath36">
      <path
         d="M 56.6375,164.83699 H 720.39584 V 518.67098 H 56.6375 Z"
         id="path36" />
    </clipPath>
    <clipPath
       clipPathUnits="userSpaceOnUse"
       id="clipPath38">
      <path
         d="M 56.6375,164.83699 H 720.39584 V 518.67098 H 56.6375 Z"
         id="path38" />
    </clipPath>
    <clipPath
       clipPathUnits="userSpaceOnUse"
       id="clipPath40">
      <path
         d="M 56.6375,164.83699 H 720.39584 V 518.67098 H 56.6375 Z"
         id="path40" />
    </clipPath>
    <clipPath
       clipPathUnits="userSpaceOnUse"
       id="clipPath42">
      <path
         d="M 56.6375,164.83699 H 720.39584 V 518.67098 H 56.6375 Z"
         id="path42" />
    </clipPath>
    <clipPath
       clipPathUnits="userSpaceOnUse"
       id="clipPath59">
      <path
         d="M 56.6375,164.83699 H 720.39584 V 518.67098 H 56.6375 Z"
         id="path59" />
    </clipPath>
  </defs>
  <sodipodi:namedview
     id="namedview1"
     pagecolor="#ffffff"
     bordercolor="#000000"
     borderopacity="0.25"
     inkscape:showpageshadow="2"
     inkscape:pageopacity="0.0"
     inkscape:pagecheckerboard="0"
     inkscape:deskcolor="#d1d1d1">
    <inkscape:page
       x="0"
       y="0"
       inkscape:label="1"
       id="page1"
       width="1141.1953"
       height="733.82697"
       margin="0"
       bleed="0" />
  </sodipodi:namedview>
  <g
     id="g1"
     inkscape:groupmode="layer"
     inkscape:label="1">
    <path
       id="path1"
       d="M 0,0 H 855.89648 V 550.37023 H 0 Z"
       style="fill:#ffffff;fill-opacity:1;fill-rule:nonzero;stroke:none"
       transform="matrix(1.3333333,0,0,-1.3333333,0,733.82698)" />
    <path
       id="path2"
       d="M 56.6375,164.83699 H 720.39584 V 518.67098 H 56.6375 Z"
       style="fill:#ffffff;fill-opacity:1;fill-rule:nonzero;stroke:none"
       transform="matrix(1.3333333,0,0,-1.3333333,0,733.82698)" />
    <path
       id="path3"
       d="M 86.808334,164.83699 H 175.11321 V 269.41847 H 86.808334 Z"
       style="fill:#08306b;fill-opacity:1;fill-rule:nonzero;stroke:#000000;stroke-width:0.6;stroke-linecap:butt;stroke-linejoin:miter;stroke-miterlimit:10;stroke-dasharray:none;stroke-opacity:1"
       transform="matrix(1.3333333,0,0,-1.3333333,0,733.82698)"
       clip-path="url(#clipPath4)" />
    <path
       id="path5"
       d="m 233.98313,164.83699 h 88.30488 v 43.57562 h -88.30488 z"
       style="fill:#08306b;fill-opacity:1;fill-rule:nonzero;stroke:#000000;stroke-width:0.6;stroke-linecap:butt;stroke-linejoin:miter;stroke-miterlimit:10;stroke-dasharray:none;stroke-opacity:1"
       transform="matrix(1.3333333,0,0,-1.3333333,0,733.82698)"
       clip-path="url(#clipPath6)" />
    <path
       id="path7"
       d="m 454.74533,164.83699 h 88.30488 v 8.71513 h -88.30488 z"
       style="fill:#08306b;fill-opacity:1;fill-rule:nonzero;stroke:#000000;stroke-width:0.6;stroke-linecap:butt;stroke-linejoin:miter;stroke-miterlimit:10;stroke-dasharray:none;stroke-opacity:1"
       transform="matrix(1.3333333,0,0,-1.3333333,0,733.82698)"
       clip-path="url(#clipPath8)" />
    <path
       id="path9"
       d="M 601.92012,164.83699 H 690.225 v 37.76553 h -88.30488 z"
       style="fill:#08306b;fill-opacity:1;fill-rule:nonzero;stroke:#000000;stroke-width:0.6;stroke-linecap:butt;stroke-linejoin:miter;stroke-miterlimit:10;stroke-dasharray:none;stroke-opacity:1"
       transform="matrix(1.3333333,0,0,-1.3333333,0,733.82698)"
       clip-path="url(#clipPath10)" />
    <path
       id="path11"
       d="m 86.808334,269.41847 h 88.304876 v 8.71512 H 86.808334 Z"
       style="fill:#2171b5;fill-opacity:1;fill-rule:nonzero;stroke:#000000;stroke-width:0.6;stroke-linecap:butt;stroke-linejoin:miter;stroke-miterlimit:10;stroke-dasharray:none;stroke-opacity:1"
       transform="matrix(1.3333333,0,0,-1.3333333,0,733.82698)"
       clip-path="url(#clipPath12)" />
    <path
       id="path13"
       d="m 233.98313,208.41261 h 88.30488 v 8.71512 h -88.30488 z"
       style="fill:#2171b5;fill-opacity:1;fill-rule:nonzero;stroke:#000000;stroke-width:0.6;stroke-linecap:butt;stroke-linejoin:miter;stroke-miterlimit:10;stroke-dasharray:none;stroke-opacity:1"
       transform="matrix(1.3333333,0,0,-1.3333333,0,733.82698)"
       clip-path="url(#clipPath14)" />
    <path
       id="path15"
       d="m 454.74533,173.55212 h 88.30488 v 5.81008 h -88.30488 z"
       style="fill:#2171b5;fill-opacity:1;fill-rule:nonzero;stroke:#000000;stroke-width:0.6;stroke-linecap:butt;stroke-linejoin:miter;stroke-miterlimit:10;stroke-dasharray:none;stroke-opacity:1"
       transform="matrix(1.3333333,0,0,-1.3333333,0,733.82698)"
       clip-path="url(#clipPath16)" />
    <path
       id="path17"
       d="M 601.92012,202.60252 H 690.225 v 14.52521 h -88.30488 z"
       style="fill:#2171b5;fill-opacity:1;fill-rule:nonzero;stroke:#000000;stroke-width:0.6;stroke-linecap:butt;stroke-linejoin:miter;stroke-miterlimit:10;stroke-dasharray:none;stroke-opacity:1"
       transform="matrix(1.3333333,0,0,-1.3333333,0,733.82698)"
       clip-path="url(#clipPath18)" />
    <path
       id="path19"
       d="m 86.808334,278.13359 h 88.304876 v 72.62602 H 86.808334 Z"
       style="fill:#6baed6;fill-opacity:1;fill-rule:nonzero;stroke:#000000;stroke-width:0.6;stroke-linecap:butt;stroke-linejoin:miter;stroke-miterlimit:10;stroke-dasharray:none;stroke-opacity:1"
       transform="matrix(1.3333333,0,0,-1.3333333,0,733.82698)"
       clip-path="url(#clipPath20)" />
    <path
       id="path21"
       d="m 233.98313,217.12773 h 88.30488 v 87.15123 h -88.30488 z"
       style="fill:#6baed6;fill-opacity:1;fill-rule:nonzero;stroke:#000000;stroke-width:0.6;stroke-linecap:butt;stroke-linejoin:miter;stroke-miterlimit:10;stroke-dasharray:none;stroke-opacity:1"
       transform="matrix(1.3333333,0,0,-1.3333333,0,733.82698)"
       clip-path="url(#clipPath22)" />
    <path
       id="path23"
       d="m 454.74533,179.3622 h 88.30488 v 14.5252 h -88.30488 z"
       style="fill:#6baed6;fill-opacity:1;fill-rule:nonzero;stroke:#000000;stroke-width:0.6;stroke-linecap:butt;stroke-linejoin:miter;stroke-miterlimit:10;stroke-dasharray:none;stroke-opacity:1"
       transform="matrix(1.3333333,0,0,-1.3333333,0,733.82698)"
       clip-path="url(#clipPath24)" />
    <path
       id="path25"
       d="M 601.92012,217.12773 H 690.225 v 14.5252 h -88.30488 z"
       style="fill:#6baed6;fill-opacity:1;fill-rule:nonzero;stroke:#000000;stroke-width:0.6;stroke-linecap:butt;stroke-linejoin:miter;stroke-miterlimit:10;stroke-dasharray:none;stroke-opacity:1"
       transform="matrix(1.3333333,0,0,-1.3333333,0,733.82698)"
       clip-path="url(#clipPath26)" />
    <path
       id="path27"
       d="M 86.808334,350.75961 H 175.11321 V 455.34109 H 86.808334 Z"
       style="fill:#bdd7e7;fill-opacity:1;fill-rule:nonzero;stroke:#000000;stroke-width:0.6;stroke-linecap:butt;stroke-linejoin:miter;stroke-miterlimit:10;stroke-dasharray:none;stroke-opacity:1"
       transform="matrix(1.3333333,0,0,-1.3333333,0,733.82698)"
       clip-path="url(#clipPath28)" />
    <path
       id="path29"
       d="m 233.98313,304.27896 h 88.30488 v 49.38569 h -88.30488 z"
       style="fill:#bdd7e7;fill-opacity:1;fill-rule:nonzero;stroke:#000000;stroke-width:0.6;stroke-linecap:butt;stroke-linejoin:miter;stroke-miterlimit:10;stroke-dasharray:none;stroke-opacity:1"
       transform="matrix(1.3333333,0,0,-1.3333333,0,733.82698)"
       clip-path="url(#clipPath30)" />
    <path
       id="path31"
       d="m 454.74533,193.8874 h 88.30488 v 58.10082 h -88.30488 z"
       style="fill:#bdd7e7;fill-opacity:1;fill-rule:nonzero;stroke:#000000;stroke-width:0.6;stroke-linecap:butt;stroke-linejoin:miter;stroke-miterlimit:10;stroke-dasharray:none;stroke-opacity:1"
       transform="matrix(1.3333333,0,0,-1.3333333,0,733.82698)"
       clip-path="url(#clipPath32)" />
    <path
       id="path33"
       d="M 601.92012,231.65293 H 690.225 v 66.81595 h -88.30488 z"
       style="fill:#bdd7e7;fill-opacity:1;fill-rule:nonzero;stroke:#000000;stroke-width:0.6;stroke-linecap:butt;stroke-linejoin:miter;stroke-miterlimit:10;stroke-dasharray:none;stroke-opacity:1"
       transform="matrix(1.3333333,0,0,-1.3333333,0,733.82698)"
       clip-path="url(#clipPath34)" />
    <path
       id="path35"
       d="m 86.808334,455.34109 h 88.304876 v 46.48065 H 86.808334 Z"
       style="fill:#eff3ff;fill-opacity:1;fill-rule:nonzero;stroke:#000000;stroke-width:0.6;stroke-linecap:butt;stroke-linejoin:miter;stroke-miterlimit:10;stroke-dasharray:none;stroke-opacity:1"
       transform="matrix(1.3333333,0,0,-1.3333333,0,733.82698)"
       clip-path="url(#clipPath36)" />
    <path
       id="path37"
       d="m 233.98313,353.66465 h 88.30488 v 40.67058 h -88.30488 z"
       style="fill:#eff3ff;fill-opacity:1;fill-rule:nonzero;stroke:#000000;stroke-width:0.6;stroke-linecap:butt;stroke-linejoin:miter;stroke-miterlimit:10;stroke-dasharray:none;stroke-opacity:1"
       transform="matrix(1.3333333,0,0,-1.3333333,0,733.82698)"
       clip-path="url(#clipPath38)" />
    <path
       id="path39"
       d="m 454.74533,251.98822 h 88.30488 v 130.72684 h -88.30488 z"
       style="fill:#eff3ff;fill-opacity:1;fill-rule:nonzero;stroke:#000000;stroke-width:0.6;stroke-linecap:butt;stroke-linejoin:miter;stroke-miterlimit:10;stroke-dasharray:none;stroke-opacity:1"
       transform="matrix(1.3333333,0,0,-1.3333333,0,733.82698)"
       clip-path="url(#clipPath40)" />
    <path
       id="path41"
       d="M 601.92012,298.46888 H 690.225 v 127.8218 h -88.30488 z"
       style="fill:#eff3ff;fill-opacity:1;fill-rule:nonzero;stroke:#000000;stroke-width:0.6;stroke-linecap:butt;stroke-linejoin:miter;stroke-miterlimit:10;stroke-dasharray:none;stroke-opacity:1"
       transform="matrix(1.3333333,0,0,-1.3333333,0,733.82698)"
       clip-path="url(#clipPath42)" />
    <path
       id="path43"
       d="m 130.96077,164.83699 v -3.5"
       style="fill:#000000;fill-opacity:1;fill-rule:nonzero;stroke:#000000;stroke-width:0.8;stroke-linecap:butt;stroke-linejoin:round;stroke-miterlimit:10;stroke-dasharray:none;stroke-opacity:1"
       transform="matrix(1.3333333,0,0,-1.3333333,0,733.82698)" />
    <text
       id="text43"
       xml:space="preserve"
       transform="matrix(1.3333333,0,0,1.3333333,96.020614,543.64849)"><tspan
         id="tspan43"
         style="font-variant:normal;font-weight:700;font-size:20px;font-family:'DejaVu Sans';writing-mode:lr-tb;fill:#000000;fill-opacity:1;fill-rule:nonzero;stroke:none"
         x="0"
         y="0">Qwen-Max</tspan></text>
    <text
       id="text44"
       xml:space="preserve"
       transform="matrix(1.3333333,0,0,1.3333333,131.06228,573.51516)"><tspan
         id="tspan44"
         style="font-variant:normal;font-weight:700;font-size:20px;font-family:'DejaVu Sans';writing-mode:lr-tb;fill:#000000;fill-opacity:1;fill-rule:nonzero;stroke:none"
         x="0"
         dx="0 0 -2.65625"
         y="0">(Text)</tspan></text>
    <path
       id="path44"
       d="m 278.13557,164.83699 v -3.5"
       style="fill:#000000;fill-opacity:1;fill-rule:nonzero;stroke:#000000;stroke-width:0.8;stroke-linecap:butt;stroke-linejoin:round;stroke-miterlimit:10;stroke-dasharray:none;stroke-opacity:1"
       transform="matrix(1.3333333,0,0,-1.3333333,0,733.82698)" />
    <text
       id="text45"
       xml:space="preserve"
       transform="matrix(1.3333333,0,0,1.3333333,305.30576,543.64849)"><tspan
         id="tspan45"
         style="font-variant:normal;font-weight:700;font-size:20px;font-family:'DejaVu Sans';writing-mode:lr-tb;fill:#000000;fill-opacity:1;fill-rule:nonzero;stroke:none"
         x="0"
         dx="0 0 0 0 0 -1.453125"
         y="0">Qwen-VL</tspan></text>
    <text
       id="text46"
       xml:space="preserve"
       transform="matrix(1.3333333,0,0,1.3333333,312.85784,573.51516)"><tspan
         id="tspan46"
         style="font-variant:normal;font-weight:700;font-size:20px;font-family:'DejaVu Sans';writing-mode:lr-tb;fill:#000000;fill-opacity:1;fill-rule:nonzero;stroke:none"
         x="0"
         dx="0 0 -0.34375"
         y="0">(Vision)</tspan></text>
    <path
       id="path46"
       d="m 498.89777,164.83699 v -3.5"
       style="fill:#000000;fill-opacity:1;fill-rule:nonzero;stroke:#000000;stroke-width:0.8;stroke-linecap:butt;stroke-linejoin:round;stroke-miterlimit:10;stroke-dasharray:none;stroke-opacity:1"
       transform="matrix(1.3333333,0,0,-1.3333333,0,733.82698)" />
    <text
       id="text47"
       xml:space="preserve"
       transform="matrix(1.3333333,0,0,1.3333333,582.53036,543.64849)"><tspan
         id="tspan47"
         style="font-variant:normal;font-weight:700;font-size:20px;font-family:'DejaVu Sans';writing-mode:lr-tb;fill:#000000;fill-opacity:1;fill-rule:nonzero;stroke:none"
         x="0"
         y="0">Gemini Pro</tspan></text>
    <text
       id="text48"
       xml:space="preserve"
       transform="matrix(1.3333333,0,0,1.3333333,616.86369,573.51516)"><tspan
         id="tspan48"
         style="font-variant:normal;font-weight:700;font-size:20px;font-family:'DejaVu Sans';writing-mode:lr-tb;fill:#000000;fill-opacity:1;fill-rule:nonzero;stroke:none"
         x="0"
         y="0">(Base)</tspan></text>
    <path
       id="path48"
       d="m 646.07256,164.83699 v -3.5"
       style="fill:#000000;fill-opacity:1;fill-rule:nonzero;stroke:#000000;stroke-width:0.8;stroke-linecap:butt;stroke-linejoin:round;stroke-miterlimit:10;stroke-dasharray:none;stroke-opacity:1"
       transform="matrix(1.3333333,0,0,-1.3333333,0,733.82698)" />
    <text
       id="text49"
       xml:space="preserve"
       transform="matrix(1.3333333,0,0,1.3333333,771.84675,543.64849)"><tspan
         id="tspan49"
         style="font-variant:normal;font-weight:700;font-size:20px;font-family:'DejaVu Sans';writing-mode:lr-tb;fill:#000000;fill-opacity:1;fill-rule:nonzero;stroke:none"
         x="0"
         y="0">Gemini DDR</tspan></text>
    <text
       id="text50"
       xml:space="preserve"
       transform="matrix(1.3333333,0,0,1.3333333,804.47175,573.51516)"><tspan
         id="tspan50"
         style="font-variant:normal;font-weight:700;font-size:20px;font-family:'DejaVu Sans';writing-mode:lr-tb;fill:#000000;fill-opacity:1;fill-rule:nonzero;stroke:none"
         x="0"
         y="0">(Agent)</tspan></text>
    <path
       id="path50"
       d="m 56.6375,164.83699 h -3.5"
       style="fill:#000000;fill-opacity:1;fill-rule:nonzero;stroke:#000000;stroke-width:0.8;stroke-linecap:butt;stroke-linejoin:round;stroke-miterlimit:10;stroke-dasharray:none;stroke-opacity:1"
       transform="matrix(1.3333333,0,0,-1.3333333,0,733.82698)" />
    <text
       id="text51"
       xml:space="preserve"
       transform="matrix(1.3333333,0,0,1.3333333,57.704167,519.10682)"><tspan
         id="tspan51"
         style="font-variant:normal;font-weight:normal;font-size:10px;font-family:'DejaVu Sans';writing-mode:lr-tb;fill:#000000;fill-opacity:1;fill-rule:nonzero;stroke:none"
         x="0"
         y="0">0</tspan></text>
    <path
       id="path51"
       d="m 56.6375,222.93781 h -3.5"
       style="fill:#000000;fill-opacity:1;fill-rule:nonzero;stroke:#000000;stroke-width:0.8;stroke-linecap:butt;stroke-linejoin:round;stroke-miterlimit:10;stroke-dasharray:none;stroke-opacity:1"
       transform="matrix(1.3333333,0,0,-1.3333333,0,733.82698)" />
    <text
       id="text52"
       xml:space="preserve"
       transform="matrix(1.3333333,0,0,1.3333333,49.225,441.63906)"><tspan
         id="tspan52"
         style="font-variant:normal;font-weight:normal;font-size:10px;font-family:'DejaVu Sans';writing-mode:lr-tb;fill:#000000;fill-opacity:1;fill-rule:nonzero;stroke:none"
         x="0"
         y="0">20</tspan></text>
    <path
       id="path52"
       d="m 56.6375,281.03863 h -3.5"
       style="fill:#000000;fill-opacity:1;fill-rule:nonzero;stroke:#000000;stroke-width:0.8;stroke-linecap:butt;stroke-linejoin:round;stroke-miterlimit:10;stroke-dasharray:none;stroke-opacity:1"
       transform="matrix(1.3333333,0,0,-1.3333333,0,733.82698)" />
    <text
       id="text53"
       xml:space="preserve"
       transform="matrix(1.3333333,0,0,1.3333333,49.225,364.17131)"><tspan
         id="tspan53"
         style="font-variant:normal;font-weight:normal;font-size:10px;font-family:'DejaVu Sans';writing-mode:lr-tb;fill:#000000;fill-opacity:1;fill-rule:nonzero;stroke:none"
         x="0"
         y="0">40</tspan></text>
    <path
       id="path53"
       d="m 56.6375,339.13945 h -3.5"
       style="fill:#000000;fill-opacity:1;fill-rule:nonzero;stroke:#000000;stroke-width:0.8;stroke-linecap:butt;stroke-linejoin:round;stroke-miterlimit:10;stroke-dasharray:none;stroke-opacity:1"
       transform="matrix(1.3333333,0,0,-1.3333333,0,733.82698)" />
    <text
       id="text54"
       xml:space="preserve"
       transform="matrix(1.3333333,0,0,1.3333333,49.225,286.70355)"><tspan
         id="tspan54"
         style="font-variant:normal;font-weight:normal;font-size:10px;font-family:'DejaVu Sans';writing-mode:lr-tb;fill:#000000;fill-opacity:1;fill-rule:nonzero;stroke:none"
         x="0"
         y="0">60</tspan></text>
    <path
       id="path54"
       d="m 56.6375,397.24027 h -3.5"
       style="fill:#000000;fill-opacity:1;fill-rule:nonzero;stroke:#000000;stroke-width:0.8;stroke-linecap:butt;stroke-linejoin:round;stroke-miterlimit:10;stroke-dasharray:none;stroke-opacity:1"
       transform="matrix(1.3333333,0,0,-1.3333333,0,733.82698)" />
    <text
       id="text55"
       xml:space="preserve"
       transform="matrix(1.3333333,0,0,1.3333333,49.225,209.23579)"><tspan
         id="tspan55"
         style="font-variant:normal;font-weight:normal;font-size:10px;font-family:'DejaVu Sans';writing-mode:lr-tb;fill:#000000;fill-opacity:1;fill-rule:nonzero;stroke:none"
         x="0"
         y="0">80</tspan></text>
    <path
       id="path55"
       d="m 56.6375,455.34109 h -3.5"
       style="fill:#000000;fill-opacity:1;fill-rule:nonzero;stroke:#000000;stroke-width:0.8;stroke-linecap:butt;stroke-linejoin:round;stroke-miterlimit:10;stroke-dasharray:none;stroke-opacity:1"
       transform="matrix(1.3333333,0,0,-1.3333333,0,733.82698)" />
    <text
       id="text56"
       xml:space="preserve"
       transform="matrix(1.3333333,0,0,1.3333333,40.745833,131.76803)"><tspan
         id="tspan56"
         style="font-variant:normal;font-weight:normal;font-size:10px;font-family:'DejaVu Sans';writing-mode:lr-tb;fill:#000000;fill-opacity:1;fill-rule:nonzero;stroke:none"
         x="0"
         y="0">100</tspan></text>
    <path
       id="path56"
       d="m 56.6375,513.4419 h -3.5"
       style="fill:#000000;fill-opacity:1;fill-rule:nonzero;stroke:#000000;stroke-width:0.8;stroke-linecap:butt;stroke-linejoin:round;stroke-miterlimit:10;stroke-dasharray:none;stroke-opacity:1"
       transform="matrix(1.3333333,0,0,-1.3333333,0,733.82698)" />
    <text
       id="text57"
       xml:space="preserve"
       transform="matrix(1.3333333,0,0,1.3333333,40.745833,54.300273)"><tspan
         id="tspan57"
         style="font-variant:normal;font-weight:normal;font-size:10px;font-family:'DejaVu Sans';writing-mode:lr-tb;fill:#000000;fill-opacity:1;fill-rule:nonzero;stroke:none"
         x="0"
         y="0">120</tspan></text>
    <text
       id="text58"
       xml:space="preserve"
       transform="matrix(0,-1.3333333,1.3333333,0,29.870833,436.155)"><tspan
         id="tspan58"
         style="font-variant:normal;font-weight:700;font-size:20px;font-family:'DejaVu Sans';writing-mode:lr-tb;fill:#000000;fill-opacity:1;fill-rule:nonzero;stroke:none"
         x="0"
         y="0">Absolute Error Count</tspan></text>
    <path
       id="path58"
       d="M 388.51667,164.83699 V 518.67098"
       style="fill:none;stroke:#808080;stroke-width:1.5;stroke-linecap:butt;stroke-linejoin:round;stroke-miterlimit:10;stroke-dasharray:5.55, 2.4;stroke-dashoffset:0;stroke-opacity:0.3"
       transform="matrix(1.3333333,0,0,-1.3333333,0,733.82698)"
       clip-path="url(#clipPath59)" />
    <path
       id="path60"
       d="M 56.6375,164.83699 V 518.67098"
       style="fill:none;stroke:#000000;stroke-width:0.8;stroke-linecap:square;stroke-linejoin:miter;stroke-miterlimit:10;stroke-dasharray:none;stroke-opacity:1"
       transform="matrix(1.3333333,0,0,-1.3333333,0,733.82698)" />
    <path
       id="path61"
       d="M 720.39584,164.83699 V 518.67098"
       style="fill:none;stroke:#000000;stroke-width:0.8;stroke-linecap:square;stroke-linejoin:miter;stroke-miterlimit:10;stroke-dasharray:none;stroke-opacity:1"
       transform="matrix(1.3333333,0,0,-1.3333333,0,733.82698)" />
    <path
       id="path62"
       d="M 56.6375,164.83699 H 720.39584"
       style="fill:none;stroke:#000000;stroke-width:0.8;stroke-linecap:square;stroke-linejoin:miter;stroke-miterlimit:10;stroke-dasharray:none;stroke-opacity:1"
       transform="matrix(1.3333333,0,0,-1.3333333,0,733.82698)" />
    <path
       id="path63"
       d="M 56.6375,518.67098 H 720.39584"
       style="fill:none;stroke:#000000;stroke-width:0.8;stroke-linecap:square;stroke-linejoin:miter;stroke-miterlimit:10;stroke-dasharray:none;stroke-opacity:1"
       transform="matrix(1.3333333,0,0,-1.3333333,0,733.82698)" />
    <path
       id="path64"
       d="m 328.68774,288.4458 c -16.26552,-8.92633 -32.04096,-17.58371 -47.32633,-25.97215"
       style="fill:none;stroke:#000000;stroke-width:1.5;stroke-linecap:round;stroke-linejoin:round;stroke-miterlimit:10;stroke-dasharray:none;stroke-opacity:1"
       transform="matrix(1.3333333,0,0,-1.3333333,0,733.82698)" />
    <path
       id="path65"
       d="m 290.29913,262.81582 -8.93772,-0.34217 5.0889,7.35548"
       style="fill:none;stroke:#000000;stroke-width:1.5;stroke-linecap:round;stroke-linejoin:round;stroke-miterlimit:10;stroke-dasharray:none;stroke-opacity:1"
       transform="matrix(1.3333333,0,0,-1.3333333,0,733.82698)" />
    <text
       id="text65"
       xml:space="preserve"
       transform="matrix(1.3333333,0,0,1.3333333,291.90146,339.74187)"><tspan
         id="tspan65"
         style="font-variant:normal;font-weight:700;font-size:20px;font-family:'DejaVu Sans';writing-mode:lr-tb;fill:#000000;fill-opacity:1;fill-rule:nonzero;stroke:none"
         x="0"
         y="0">20% DTE Error Increase</tspan></text>
    <path
       id="path66"
       d="m 707.3529,201.69318 c -19.78719,-5.80355 -39.03797,-11.44977 -57.75232,-16.93866"
       style="fill:none;stroke:#000000;stroke-width:1.5;stroke-linecap:round;stroke-linejoin:round;stroke-miterlimit:10;stroke-dasharray:none;stroke-opacity:1"
       transform="matrix(1.3333333,0,0,-1.3333333,0,733.82698)" />
    <path
       id="path67"
       d="m 658.40297,183.16775 -8.80239,1.58677 6.55085,6.08985"
       style="fill:none;stroke:#000000;stroke-width:1.5;stroke-linecap:round;stroke-linejoin:round;stroke-miterlimit:10;stroke-dasharray:none;stroke-opacity:1"
       transform="matrix(1.3333333,0,0,-1.3333333,0,733.82698)" />
    <text
       id="text67"
       xml:space="preserve"
       transform="matrix(1.3333333,0,0,1.3333333,865.99115,455.9435)"><tspan
         id="tspan67"
         style="font-variant:normal;font-weight:700;font-size:20px;font-family:'DejaVu Sans';writing-mode:lr-tb;fill:#000000;fill-opacity:1;fill-rule:nonzero;stroke:none"
         x="0"
         y="0">4.3x EMI Increase</tspan></text>
    <text
       id="text68"
       xml:space="preserve"
       transform="matrix(1.3333333,0,0,1.3333333,77.543395,29.870833)"><tspan
         id="tspan68"
         style="font-style:oblique;font-variant:normal;font-weight:normal;font-size:20px;font-family:'DejaVu Sans';writing-mode:lr-tb;fill:#000000;fill-opacity:1;fill-rule:nonzero;stroke:none"
         x="0"
         y="0">Model Capability Comparison</tspan></text>
    <text
       id="text69"
       xml:space="preserve"
       transform="matrix(1.3333333,0,0,1.3333333,574.74064,29.870833)"><tspan
         id="tspan69"
         style="font-style:oblique;font-variant:normal;font-weight:normal;font-size:20px;font-family:'DejaVu Sans';writing-mode:lr-tb;fill:#000000;fill-opacity:1;fill-rule:nonzero;stroke:none"
         x="0"
         y="0">Agentic System Comparison</tspan></text>
    <path
       id="path69"
       d="m 20.991669,71.275 h 36 v 12.6 h -36 z"
       style="fill:#08306b;fill-opacity:1;fill-rule:nonzero;stroke:#000000;stroke-width:0.6;stroke-linecap:butt;stroke-linejoin:miter;stroke-miterlimit:10;stroke-dasharray:none;stroke-opacity:1"
       transform="matrix(1.3333333,0,0,-1.3333333,0,733.82698)" />
    <text
       id="text70"
       xml:space="preserve"
       transform="matrix(1.3333333,0,0,1.3333333,95.188891,638.79365)"><tspan
         id="tspan70"
         style="font-variant:normal;font-weight:700;font-size:18px;font-family:'DejaVu Sans';writing-mode:lr-tb;fill:#000000;fill-opacity:1;fill-rule:nonzero;stroke:none"
         x="0"
         y="0">Entity Mis-id (EMI)</tspan></text>
    <path
       id="path70"
       d="m 20.991669,44.7125 h 36 v 12.6 h -36 z"
       style="fill:#2171b5;fill-opacity:1;fill-rule:nonzero;stroke:#000000;stroke-width:0.6;stroke-linecap:butt;stroke-linejoin:miter;stroke-miterlimit:10;stroke-dasharray:none;stroke-opacity:1"
       transform="matrix(1.3333333,0,0,-1.3333333,0,733.82698)" />
    <text
       id="text71"
       xml:space="preserve"
       transform="matrix(1.3333333,0,0,1.3333333,95.188891,674.21031)"><tspan
         id="tspan71"
         style="font-variant:normal;font-weight:700;font-size:18px;font-family:'DejaVu Sans';writing-mode:lr-tb;fill:#000000;fill-opacity:1;fill-rule:nonzero;stroke:none"
         x="0"
         y="0">Ref &amp; Mapping Drift (RMD)</tspan></text>
    <path
       id="path71"
       d="m 20.991669,18.15 h 36 v 12.6 h -36 z"
       style="fill:#6baed6;fill-opacity:1;fill-rule:nonzero;stroke:#000000;stroke-width:0.6;stroke-linecap:butt;stroke-linejoin:miter;stroke-miterlimit:10;stroke-dasharray:none;stroke-opacity:1"
       transform="matrix(1.3333333,0,0,-1.3333333,0,733.82698)" />
    <text
       id="text72"
       xml:space="preserve"
       transform="matrix(1.3333333,0,0,1.3333333,95.188891,709.62698)"><tspan
         id="tspan72"
         style="font-variant:normal;font-weight:700;font-size:18px;font-family:'DejaVu Sans';writing-mode:lr-tb;fill:#000000;fill-opacity:1;fill-rule:nonzero;stroke:none"
         x="0"
         dx="0 0 0 0 0 0 0 0 -2.390625"
         y="0">Detail/Text Extraction (DTE)</tspan></text>
    <path
       id="path72"
       d="m 389.21979,71.275 h 36 v 12.6 h -36 z"
       style="fill:#bdd7e7;fill-opacity:1;fill-rule:nonzero;stroke:#000000;stroke-width:0.6;stroke-linecap:butt;stroke-linejoin:miter;stroke-miterlimit:10;stroke-dasharray:none;stroke-opacity:1"
       transform="matrix(1.3333333,0,0,-1.3333333,0,733.82698)" />
    <text
       id="text73"
       xml:space="preserve"
       transform="matrix(1.3333333,0,0,1.3333333,586.15972,638.79365)"><tspan
         id="tspan73"
         style="font-variant:normal;font-weight:700;font-size:18px;font-family:'DejaVu Sans';writing-mode:lr-tb;fill:#000000;fill-opacity:1;fill-rule:nonzero;stroke:none"
         x="0"
         dx="0 0 0 0 0 0 0 0 0 0 0 0 0 0 0 0 0 0 0 0 0 -0.796875"
         y="0">Log/Know Conflict (LKC)</tspan></text>
    <path
       id="path73"
       d="m 389.21979,44.7125 h 36 v 12.6 h -36 z"
       style="fill:#eff3ff;fill-opacity:1;fill-rule:nonzero;stroke:#000000;stroke-width:0.6;stroke-linecap:butt;stroke-linejoin:miter;stroke-miterlimit:10;stroke-dasharray:none;stroke-opacity:1"
       transform="matrix(1.3333333,0,0,-1.3333333,0,733.82698)" />
    <text
       id="text74"
       xml:space="preserve"
       transform="matrix(1.3333333,0,0,1.3333333,586.15972,674.21031)"><tspan
         id="tspan74"
         style="font-variant:normal;font-weight:700;font-size:18px;font-family:'DejaVu Sans';writing-mode:lr-tb;fill:#000000;fill-opacity:1;fill-rule:nonzero;stroke:none"
         x="0"
         dx="0 0 0 0 0 0 0 0 0 0 0 0 -2.3125"
         y="0">Structural/Task Omission (STO)</tspan></text>
  </g>
</svg>
